<mxfile host="app.diagrams.net" agent="Mozilla/5.0 (Windows NT 10.0; Win64; x64) AppleWebKit/537.36 (KHTML, like Gecko) Chrome/134.0.0.0 Safari/537.36" version="26.1.3">
  <diagram name="Сторінка-1" id="ohlkfbqVo2ljjqBRo6Pe">
    <mxGraphModel dx="1963" dy="835" grid="1" gridSize="10" guides="1" tooltips="1" connect="1" arrows="1" fold="1" page="1" pageScale="1" pageWidth="827" pageHeight="1169" math="0" shadow="0">
      <root>
        <mxCell id="0" />
        <mxCell id="1" parent="0" />
        <mxCell id="vrkFvQkN8s96hbBnOZgS-3" value="" style="rounded=0;whiteSpace=wrap;html=1;rotation=-90;" vertex="1" parent="1">
          <mxGeometry x="956.56" y="284.68" width="528.75" height="861.88" as="geometry" />
        </mxCell>
        <mxCell id="vrkFvQkN8s96hbBnOZgS-5" style="edgeStyle=orthogonalEdgeStyle;rounded=0;orthogonalLoop=1;jettySize=auto;html=1;exitX=1;exitY=1;exitDx=0;exitDy=0;exitPerimeter=0;" edge="1" parent="1" source="tDKUBwjQi8ZseLeC3Zrb-1" target="tDKUBwjQi8ZseLeC3Zrb-6">
          <mxGeometry relative="1" as="geometry">
            <Array as="points">
              <mxPoint x="680" y="1020" />
              <mxPoint x="1780" y="1020" />
            </Array>
          </mxGeometry>
        </mxCell>
        <mxCell id="tDKUBwjQi8ZseLeC3Zrb-1" value="Адміністратор" style="shape=umlActor;verticalLabelPosition=bottom;verticalAlign=top;html=1;outlineConnect=0;" parent="1" vertex="1">
          <mxGeometry x="640" y="646" width="40" height="70" as="geometry" />
        </mxCell>
        <mxCell id="tDKUBwjQi8ZseLeC3Zrb-5" value="Перегляд розкладу сеансів" style="rounded=1;whiteSpace=wrap;html=1;arcSize=50;" parent="1" vertex="1">
          <mxGeometry x="1260" y="890" width="120" height="34" as="geometry" />
        </mxCell>
        <mxCell id="tDKUBwjQi8ZseLeC3Zrb-6" value="Відвідувач" style="shape=umlActor;verticalLabelPosition=bottom;verticalAlign=top;html=1;outlineConnect=0;" parent="1" vertex="1">
          <mxGeometry x="1760" y="650" width="40" height="70" as="geometry" />
        </mxCell>
        <mxCell id="tDKUBwjQi8ZseLeC3Zrb-8" value="Перегляд фільмів" style="rounded=1;whiteSpace=wrap;html=1;arcSize=50;" parent="1" vertex="1">
          <mxGeometry x="1520" y="840" width="120" height="38" as="geometry" />
        </mxCell>
        <mxCell id="tDKUBwjQi8ZseLeC3Zrb-9" value="Пошук фільму на сайті" style="rounded=1;whiteSpace=wrap;html=1;arcSize=50;" parent="1" vertex="1">
          <mxGeometry x="1261" y="840" width="120" height="34" as="geometry" />
        </mxCell>
        <mxCell id="tDKUBwjQi8ZseLeC3Zrb-10" value="Бронювання квитка" style="rounded=1;whiteSpace=wrap;html=1;arcSize=50;" parent="1" vertex="1">
          <mxGeometry x="1520" y="680" width="120" height="40" as="geometry" />
        </mxCell>
        <mxCell id="tDKUBwjQi8ZseLeC3Zrb-12" value="Вибір фільму та місця" style="rounded=1;whiteSpace=wrap;html=1;arcSize=50;" parent="1" vertex="1">
          <mxGeometry x="1260" y="650" width="120" height="32" as="geometry" />
        </mxCell>
        <mxCell id="tDKUBwjQi8ZseLeC3Zrb-13" value="Підтвердження, скасування бронювання" style="rounded=1;whiteSpace=wrap;html=1;arcSize=50;" parent="1" vertex="1">
          <mxGeometry x="1221" y="696" width="160" height="34" as="geometry" />
        </mxCell>
        <mxCell id="tDKUBwjQi8ZseLeC3Zrb-15" value="Особистий кабінет" style="rounded=1;whiteSpace=wrap;html=1;arcSize=50;" parent="1" vertex="1">
          <mxGeometry x="1520" y="520" width="120" height="40" as="geometry" />
        </mxCell>
        <mxCell id="tDKUBwjQi8ZseLeC3Zrb-16" value="Перегляд історії бронювань, скасувань" style="rounded=1;whiteSpace=wrap;html=1;arcSize=50;" parent="1" vertex="1">
          <mxGeometry x="1241" y="520" width="139" height="40" as="geometry" />
        </mxCell>
        <mxCell id="tDKUBwjQi8ZseLeC3Zrb-18" value="Перегляд та зміна особистих даних" style="rounded=1;whiteSpace=wrap;html=1;arcSize=50;" parent="1" vertex="1">
          <mxGeometry x="1260" y="480" width="120" height="34" as="geometry" />
        </mxCell>
        <mxCell id="4LmILzWEmV4B9VQ7EnPL-4" value="" style="endArrow=classic;html=1;rounded=0;exitX=0;exitY=0.25;exitDx=0;exitDy=0;entryX=1;entryY=0.75;entryDx=0;entryDy=0;" parent="1" source="tDKUBwjQi8ZseLeC3Zrb-8" target="tDKUBwjQi8ZseLeC3Zrb-9" edge="1">
          <mxGeometry relative="1" as="geometry">
            <mxPoint x="1100" y="780" as="sourcePoint" />
            <mxPoint x="1200" y="780" as="targetPoint" />
          </mxGeometry>
        </mxCell>
        <mxCell id="4LmILzWEmV4B9VQ7EnPL-5" value="&amp;lt;&amp;lt;includes&amp;gt;&amp;gt;" style="edgeLabel;resizable=0;html=1;;align=center;verticalAlign=middle;" parent="4LmILzWEmV4B9VQ7EnPL-4" connectable="0" vertex="1">
          <mxGeometry relative="1" as="geometry" />
        </mxCell>
        <mxCell id="4LmILzWEmV4B9VQ7EnPL-7" value="" style="endArrow=classic;html=1;rounded=0;exitX=0;exitY=0.5;exitDx=0;exitDy=0;entryX=1;entryY=0.5;entryDx=0;entryDy=0;" parent="1" source="tDKUBwjQi8ZseLeC3Zrb-8" target="tDKUBwjQi8ZseLeC3Zrb-5" edge="1">
          <mxGeometry relative="1" as="geometry">
            <mxPoint x="1530" y="888" as="sourcePoint" />
            <mxPoint x="1440" y="906" as="targetPoint" />
          </mxGeometry>
        </mxCell>
        <mxCell id="4LmILzWEmV4B9VQ7EnPL-8" value="&amp;lt;&amp;lt;includes&amp;gt;&amp;gt;" style="edgeLabel;resizable=0;html=1;;align=center;verticalAlign=middle;" parent="4LmILzWEmV4B9VQ7EnPL-7" connectable="0" vertex="1">
          <mxGeometry relative="1" as="geometry" />
        </mxCell>
        <mxCell id="4LmILzWEmV4B9VQ7EnPL-9" value="Управління користувачами" style="rounded=1;whiteSpace=wrap;html=1;arcSize=50;" parent="1" vertex="1">
          <mxGeometry x="790" y="524" width="120" height="34" as="geometry" />
        </mxCell>
        <mxCell id="4LmILzWEmV4B9VQ7EnPL-14" value="" style="endArrow=classic;html=1;rounded=0;exitX=0;exitY=0.75;exitDx=0;exitDy=0;entryX=1;entryY=0.5;entryDx=0;entryDy=0;" parent="1" source="tDKUBwjQi8ZseLeC3Zrb-10" target="tDKUBwjQi8ZseLeC3Zrb-13" edge="1">
          <mxGeometry relative="1" as="geometry">
            <mxPoint x="1540" y="750" as="sourcePoint" />
            <mxPoint x="1450" y="818" as="targetPoint" />
          </mxGeometry>
        </mxCell>
        <mxCell id="4LmILzWEmV4B9VQ7EnPL-15" value="&amp;lt;&amp;lt;includes&amp;gt;&amp;gt;" style="edgeLabel;resizable=0;html=1;;align=center;verticalAlign=middle;" parent="4LmILzWEmV4B9VQ7EnPL-14" connectable="0" vertex="1">
          <mxGeometry relative="1" as="geometry" />
        </mxCell>
        <mxCell id="4LmILzWEmV4B9VQ7EnPL-18" value="" style="endArrow=classic;html=1;rounded=0;exitX=0;exitY=0.5;exitDx=0;exitDy=0;entryX=1;entryY=0.5;entryDx=0;entryDy=0;" parent="1" source="tDKUBwjQi8ZseLeC3Zrb-10" target="tDKUBwjQi8ZseLeC3Zrb-12" edge="1">
          <mxGeometry relative="1" as="geometry">
            <mxPoint x="1530" y="721" as="sourcePoint" />
            <mxPoint x="1411" y="757" as="targetPoint" />
          </mxGeometry>
        </mxCell>
        <mxCell id="4LmILzWEmV4B9VQ7EnPL-19" value="&amp;lt;&amp;lt;includes&amp;gt;&amp;gt;" style="edgeLabel;resizable=0;html=1;;align=center;verticalAlign=middle;" parent="4LmILzWEmV4B9VQ7EnPL-18" connectable="0" vertex="1">
          <mxGeometry relative="1" as="geometry" />
        </mxCell>
        <mxCell id="4LmILzWEmV4B9VQ7EnPL-20" value="Оплата квитка" style="rounded=1;whiteSpace=wrap;html=1;arcSize=50;" parent="1" vertex="1">
          <mxGeometry x="1250" y="740" width="121" height="34" as="geometry" />
        </mxCell>
        <mxCell id="4LmILzWEmV4B9VQ7EnPL-21" value="" style="endArrow=classic;html=1;rounded=0;exitX=0;exitY=0.75;exitDx=0;exitDy=0;" parent="1" source="tDKUBwjQi8ZseLeC3Zrb-10" target="4LmILzWEmV4B9VQ7EnPL-20" edge="1">
          <mxGeometry relative="1" as="geometry">
            <mxPoint x="1520" y="710" as="sourcePoint" />
            <mxPoint x="1411" y="713" as="targetPoint" />
          </mxGeometry>
        </mxCell>
        <mxCell id="4LmILzWEmV4B9VQ7EnPL-22" value="&amp;lt;&amp;lt;includes&amp;gt;&amp;gt;" style="edgeLabel;resizable=0;html=1;;align=center;verticalAlign=middle;" parent="4LmILzWEmV4B9VQ7EnPL-21" connectable="0" vertex="1">
          <mxGeometry relative="1" as="geometry" />
        </mxCell>
        <mxCell id="4LmILzWEmV4B9VQ7EnPL-24" value="" style="endArrow=classic;html=1;rounded=0;exitX=0;exitY=0.25;exitDx=0;exitDy=0;entryX=1;entryY=0.5;entryDx=0;entryDy=0;" parent="1" source="tDKUBwjQi8ZseLeC3Zrb-15" target="tDKUBwjQi8ZseLeC3Zrb-18" edge="1">
          <mxGeometry relative="1" as="geometry">
            <mxPoint x="1511" y="600" as="sourcePoint" />
            <mxPoint x="1361" y="560" as="targetPoint" />
          </mxGeometry>
        </mxCell>
        <mxCell id="4LmILzWEmV4B9VQ7EnPL-25" value="&amp;lt;&amp;lt;includes&amp;gt;&amp;gt;" style="edgeLabel;resizable=0;html=1;;align=center;verticalAlign=middle;" parent="4LmILzWEmV4B9VQ7EnPL-24" connectable="0" vertex="1">
          <mxGeometry relative="1" as="geometry" />
        </mxCell>
        <mxCell id="4LmILzWEmV4B9VQ7EnPL-26" value="" style="endArrow=classic;html=1;rounded=0;exitX=0;exitY=0.5;exitDx=0;exitDy=0;entryX=1;entryY=0.5;entryDx=0;entryDy=0;" parent="1" source="tDKUBwjQi8ZseLeC3Zrb-15" target="tDKUBwjQi8ZseLeC3Zrb-16" edge="1">
          <mxGeometry relative="1" as="geometry">
            <mxPoint x="1530" y="540" as="sourcePoint" />
            <mxPoint x="1380" y="497" as="targetPoint" />
          </mxGeometry>
        </mxCell>
        <mxCell id="4LmILzWEmV4B9VQ7EnPL-27" value="&amp;lt;&amp;lt;includes&amp;gt;&amp;gt;" style="edgeLabel;resizable=0;html=1;;align=center;verticalAlign=middle;" parent="4LmILzWEmV4B9VQ7EnPL-26" connectable="0" vertex="1">
          <mxGeometry relative="1" as="geometry" />
        </mxCell>
        <mxCell id="4LmILzWEmV4B9VQ7EnPL-30" value="Додавання/видалення фільмів,редаг.інф" style="rounded=1;whiteSpace=wrap;html=1;arcSize=50;" parent="1" vertex="1">
          <mxGeometry x="1030" y="885" width="150" height="37" as="geometry" />
        </mxCell>
        <mxCell id="4LmILzWEmV4B9VQ7EnPL-31" value="Оновлення інф. про сеанси" style="rounded=1;whiteSpace=wrap;html=1;arcSize=50;" parent="1" vertex="1">
          <mxGeometry x="1030" y="838" width="150" height="34" as="geometry" />
        </mxCell>
        <mxCell id="4LmILzWEmV4B9VQ7EnPL-32" value="Управління бронюваннями" style="rounded=1;whiteSpace=wrap;html=1;arcSize=50;" parent="1" vertex="1">
          <mxGeometry x="790" y="684" width="120" height="34" as="geometry" />
        </mxCell>
        <mxCell id="4LmILzWEmV4B9VQ7EnPL-33" value="Внесення змін статусу бронювання" style="rounded=1;whiteSpace=wrap;html=1;arcSize=50;" parent="1" vertex="1">
          <mxGeometry x="1025" y="692" width="140" height="34" as="geometry" />
        </mxCell>
        <mxCell id="4LmILzWEmV4B9VQ7EnPL-34" value="Перегляд бронювань" style="rounded=1;whiteSpace=wrap;html=1;arcSize=50;" parent="1" vertex="1">
          <mxGeometry x="1030" y="646" width="130" height="34" as="geometry" />
        </mxCell>
        <mxCell id="4LmILzWEmV4B9VQ7EnPL-35" value="Управління контентом" style="rounded=1;whiteSpace=wrap;html=1;arcSize=50;" parent="1" vertex="1">
          <mxGeometry x="790" y="842" width="120" height="34" as="geometry" />
        </mxCell>
        <mxCell id="4LmILzWEmV4B9VQ7EnPL-38" value="Видалення або блокування акаунтів" style="rounded=1;whiteSpace=wrap;html=1;arcSize=50;" parent="1" vertex="1">
          <mxGeometry x="1030" y="521" width="130" height="34" as="geometry" />
        </mxCell>
        <mxCell id="4LmILzWEmV4B9VQ7EnPL-39" value="Перегляд інф. про відвідувачів" style="rounded=1;whiteSpace=wrap;html=1;arcSize=50;" parent="1" vertex="1">
          <mxGeometry x="1030" y="478" width="130" height="34" as="geometry" />
        </mxCell>
        <mxCell id="4LmILzWEmV4B9VQ7EnPL-43" value="" style="endArrow=classic;html=1;rounded=0;exitX=1;exitY=0.75;exitDx=0;exitDy=0;entryX=0;entryY=0.5;entryDx=0;entryDy=0;" parent="1" source="4LmILzWEmV4B9VQ7EnPL-35" target="4LmILzWEmV4B9VQ7EnPL-30" edge="1">
          <mxGeometry relative="1" as="geometry">
            <mxPoint x="1600" y="858" as="sourcePoint" />
            <mxPoint x="1461" y="874" as="targetPoint" />
          </mxGeometry>
        </mxCell>
        <mxCell id="4LmILzWEmV4B9VQ7EnPL-44" value="&amp;lt;&amp;lt;includes&amp;gt;&amp;gt;" style="edgeLabel;resizable=0;html=1;;align=center;verticalAlign=middle;" parent="4LmILzWEmV4B9VQ7EnPL-43" connectable="0" vertex="1">
          <mxGeometry relative="1" as="geometry" />
        </mxCell>
        <mxCell id="4LmILzWEmV4B9VQ7EnPL-45" value="" style="endArrow=classic;html=1;rounded=0;exitX=1;exitY=0.25;exitDx=0;exitDy=0;entryX=0;entryY=0.75;entryDx=0;entryDy=0;" parent="1" source="4LmILzWEmV4B9VQ7EnPL-35" target="4LmILzWEmV4B9VQ7EnPL-31" edge="1">
          <mxGeometry relative="1" as="geometry">
            <mxPoint x="920" y="878" as="sourcePoint" />
            <mxPoint x="1040" y="914" as="targetPoint" />
          </mxGeometry>
        </mxCell>
        <mxCell id="4LmILzWEmV4B9VQ7EnPL-46" value="&amp;lt;&amp;lt;includes&amp;gt;&amp;gt;" style="edgeLabel;resizable=0;html=1;;align=center;verticalAlign=middle;" parent="4LmILzWEmV4B9VQ7EnPL-45" connectable="0" vertex="1">
          <mxGeometry relative="1" as="geometry" />
        </mxCell>
        <mxCell id="4LmILzWEmV4B9VQ7EnPL-47" value="" style="endArrow=classic;html=1;rounded=0;exitX=1;exitY=0.5;exitDx=0;exitDy=0;entryX=0;entryY=0.5;entryDx=0;entryDy=0;" parent="1" source="4LmILzWEmV4B9VQ7EnPL-32" target="4LmILzWEmV4B9VQ7EnPL-33" edge="1">
          <mxGeometry relative="1" as="geometry">
            <mxPoint x="920" y="861" as="sourcePoint" />
            <mxPoint x="1040" y="874" as="targetPoint" />
          </mxGeometry>
        </mxCell>
        <mxCell id="4LmILzWEmV4B9VQ7EnPL-48" value="&amp;lt;&amp;lt;includes&amp;gt;&amp;gt;" style="edgeLabel;resizable=0;html=1;;align=center;verticalAlign=middle;" parent="4LmILzWEmV4B9VQ7EnPL-47" connectable="0" vertex="1">
          <mxGeometry relative="1" as="geometry" />
        </mxCell>
        <mxCell id="4LmILzWEmV4B9VQ7EnPL-49" value="" style="endArrow=classic;html=1;rounded=0;exitX=1;exitY=0.5;exitDx=0;exitDy=0;entryX=0;entryY=0.5;entryDx=0;entryDy=0;" parent="1" source="4LmILzWEmV4B9VQ7EnPL-32" target="4LmILzWEmV4B9VQ7EnPL-34" edge="1">
          <mxGeometry relative="1" as="geometry">
            <mxPoint x="920" y="711" as="sourcePoint" />
            <mxPoint x="1035" y="719" as="targetPoint" />
          </mxGeometry>
        </mxCell>
        <mxCell id="4LmILzWEmV4B9VQ7EnPL-50" value="&amp;lt;&amp;lt;includes&amp;gt;&amp;gt;" style="edgeLabel;resizable=0;html=1;;align=center;verticalAlign=middle;" parent="4LmILzWEmV4B9VQ7EnPL-49" connectable="0" vertex="1">
          <mxGeometry relative="1" as="geometry" />
        </mxCell>
        <mxCell id="4LmILzWEmV4B9VQ7EnPL-51" value="" style="endArrow=classic;html=1;rounded=0;exitX=1;exitY=0.5;exitDx=0;exitDy=0;entryX=0;entryY=0.5;entryDx=0;entryDy=0;" parent="1" source="4LmILzWEmV4B9VQ7EnPL-9" target="4LmILzWEmV4B9VQ7EnPL-38" edge="1">
          <mxGeometry relative="1" as="geometry">
            <mxPoint x="920" y="711" as="sourcePoint" />
            <mxPoint x="1040" y="673" as="targetPoint" />
          </mxGeometry>
        </mxCell>
        <mxCell id="4LmILzWEmV4B9VQ7EnPL-52" value="&amp;lt;&amp;lt;includes&amp;gt;&amp;gt;" style="edgeLabel;resizable=0;html=1;;align=center;verticalAlign=middle;" parent="4LmILzWEmV4B9VQ7EnPL-51" connectable="0" vertex="1">
          <mxGeometry relative="1" as="geometry" />
        </mxCell>
        <mxCell id="4LmILzWEmV4B9VQ7EnPL-54" value="" style="endArrow=classic;html=1;rounded=0;exitX=1;exitY=0.25;exitDx=0;exitDy=0;entryX=0;entryY=0.5;entryDx=0;entryDy=0;" parent="1" source="4LmILzWEmV4B9VQ7EnPL-9" target="4LmILzWEmV4B9VQ7EnPL-39" edge="1">
          <mxGeometry relative="1" as="geometry">
            <mxPoint x="920" y="551" as="sourcePoint" />
            <mxPoint x="1040" y="548" as="targetPoint" />
          </mxGeometry>
        </mxCell>
        <mxCell id="4LmILzWEmV4B9VQ7EnPL-55" value="&amp;lt;&amp;lt;includes&amp;gt;&amp;gt;" style="edgeLabel;resizable=0;html=1;;align=center;verticalAlign=middle;" parent="4LmILzWEmV4B9VQ7EnPL-54" connectable="0" vertex="1">
          <mxGeometry relative="1" as="geometry" />
        </mxCell>
      </root>
    </mxGraphModel>
  </diagram>
</mxfile>
